<?xml version="1.0" encoding="UTF-8" standalone="no"?>
<!-- Created with Inkscape (http://www.inkscape.org/) -->

<svg
   xmlns:dc="http://purl.org/dc/elements/1.1/"
   xmlns:cc="http://creativecommons.org/ns#"
   xmlns:rdf="http://www.w3.org/1999/02/22-rdf-syntax-ns#"
   xmlns:svg="http://www.w3.org/2000/svg"
   xmlns="http://www.w3.org/2000/svg"
   xmlns:sodipodi="http://sodipodi.sourceforge.net/DTD/sodipodi-0.dtd"
   xmlns:inkscape="http://www.inkscape.org/namespaces/inkscape"
   width="500"
   height="500"
   viewBox="0 0 132.29167 132.29167"
   version="1.1"
   id="svg8"
   inkscape:version="0.92.2 (5c3e80d, 2017-08-06)"
   sodipodi:docname="GlyphTest-Threshold212-Intensity0.25-Blue-Background-Intensity0.5-Green.svg"
   inkscape:export-filename="/home/tats/Documents/workspace/xenolalia/projection_images/GlyphTest-Threshold212-Intensity0.125-Magenta-BackgroundGreen.png"
   inkscape:export-xdpi="96"
   inkscape:export-ydpi="96">
  <defs
     id="defs2" />
  <sodipodi:namedview
     id="base"
     pagecolor="#ffffff"
     bordercolor="#666666"
     borderopacity="1.0"
     inkscape:pageopacity="0.0"
     inkscape:pageshadow="2"
     inkscape:zoom="0.90509668"
     inkscape:cx="128.63588"
     inkscape:cy="112.9293"
     inkscape:document-units="mm"
     inkscape:current-layer="layer1"
     showgrid="false"
     units="px"
     inkscape:window-width="1853"
     inkscape:window-height="1018"
     inkscape:window-x="67"
     inkscape:window-y="754"
     inkscape:window-maximized="1" />
  <metadata
     id="metadata5">
    <rdf:RDF>
      <cc:Work
         rdf:about="">
        <dc:format>image/svg+xml</dc:format>
        <dc:type
           rdf:resource="http://purl.org/dc/dcmitype/StillImage" />
        <dc:title></dc:title>
      </cc:Work>
    </rdf:RDF>
  </metadata>
  <g
     inkscape:label="Layer 1"
     inkscape:groupmode="layer"
     id="layer1"
     transform="translate(0,-164.70834)">
    <rect
       style="opacity:1;fill:#000000;fill-opacity:1;stroke:none;stroke-width:1.21502364;stroke-miterlimit:4;stroke-dasharray:none;stroke-opacity:0.50196078"
       id="rect5439"
       width="137.97791"
       height="136.04791"
       x="-4.1806049"
       y="163.78734" />
    <rect
       style="opacity:0.25;fill:#0000ff;fill-opacity:1;stroke:none;stroke-width:1.21502364;stroke-miterlimit:4;stroke-dasharray:none;stroke-opacity:0.50196078"
       id="rect5439-9"
       width="137.97791"
       height="136.04791"
       x="-4.180603"
       y="163.78737" />
    <path
       style="opacity:0.5;fill:#00ff00;fill-opacity:1;stroke:#000000;stroke-width:0.29232603;stroke-opacity:1"
       d="M -3.8882644,231.60698 V 163.78734 H 64.954519 133.7973 v 67.81964 67.81964 H 64.954519 -3.8882644 Z m 42.5305134,39.09861 c 0.254572,-0.36176 0.754429,-1.11099 1.110795,-1.66497 0.356366,-0.55398 1.608504,-1.68737 2.782529,-2.51864 3.415573,-2.4184 3.693174,-2.76939 4.446893,-5.62252 0.592305,-2.24213 0.846044,-2.72612 2.175257,-4.14922 0.827604,-0.88606 1.957967,-2.3857 2.511919,-3.33254 1.326892,-2.26799 2.229662,-2.80704 4.703369,-2.80843 1.068223,-5.3e-4 3.303348,-0.14077 4.966944,-0.31149 3.137199,-0.32194 7.104195,-0.0281 8.81876,0.65318 1.05352,0.41863 1.790936,1.89856 2.23257,4.48059 0.192502,1.12546 0.586178,2.58165 0.874841,3.23597 0.488904,1.10822 0.73273,1.27837 3.560932,2.48477 2.839125,1.21107 3.206766,1.29509 5.667023,1.29509 2.274919,0 2.75811,-0.0907 3.570735,-0.67034 1.45338,-1.03665 1.538682,-1.87207 0.78963,-7.73359 -0.515675,-4.03531 -0.835623,-5.56199 -1.439674,-6.86966 -0.427157,-0.92473 -1.031682,-2.99679 -1.34339,-4.60458 -0.63163,-3.25795 -1.112719,-4.13523 -2.700499,-4.92441 -1.208762,-0.60081 -5.496381,-5.40412 -6.737384,-7.54773 -0.434236,-0.75006 -0.956415,-1.50225 -1.160403,-1.67155 -0.203988,-0.16929 -1.499875,-0.43609 -2.879748,-0.59288 -3.491963,-0.39679 -4.495989,-0.86284 -4.886195,-2.26807 -0.170987,-0.61577 -0.311125,-2.82969 -0.311423,-4.91982 -8.73e-4,-5.28309 0.519849,-6.08537 4.528332,-6.97851 1.125455,-0.25076 3.246485,-0.72349 4.713404,-1.05052 3.050581,-0.68007 4.428941,-0.73446 6.499697,-0.25647 1.927405,0.44489 10.619563,-0.1087 12.22248,-0.77845 0.601422,-0.25128 1.761707,-0.96139 2.57842,-1.57801 0.816708,-0.61663 2.015352,-1.39174 2.663645,-1.72248 0.648298,-0.33073 1.341094,-0.79698 1.539552,-1.0361 0.41767,-0.50327 0.81838,-7.9765 0.51454,-9.59613 -0.15961,-0.85077 -0.42723,-1.15357 -1.513128,-1.71207 -0.786357,-0.40444 -1.725136,-1.2435 -2.324134,-2.07727 -1.768549,-2.46169 -1.678823,-2.44334 -11.693522,-2.39104 -11.575448,0.0605 -11.639865,0.0693 -13.300835,1.83308 -1.623541,1.724 -2.035697,1.94045 -4.884832,2.56532 -2.870548,0.62956 -10.689984,0.70609 -12.630318,0.1236 -0.88402,-0.26538 -1.75956,-0.8735 -2.777098,-1.9289 -1.734715,-1.79926 -2.719094,-2.35218 -4.633584,-2.60267 -1.974659,-0.25837 -2.834103,-0.78598 -5.284033,-3.24387 -2.827552,-2.83675 -3.076684,-2.90092 -10.603136,-2.73146 -5.403208,0.12167 -5.963691,0.18411 -6.911621,0.76996 -1.066443,0.6591 -1.970805,2.14811 -1.970805,3.24488 0,1.11316 0.820754,2.2895 1.821953,2.6113 0.52533,0.16885 1.846149,0.44591 2.935153,0.6157 2.884841,0.44977 4.804461,1.40791 6.397521,3.19321 1.120573,1.25579 1.757122,1.67353 3.594698,2.35906 2.663774,0.99375 2.821344,1.11395 4.284246,3.26817 0.627112,0.92346 1.585471,2.01864 2.129686,2.43374 0.582404,0.44422 1.359669,1.52969 1.889288,2.63844 0.681786,1.4273 1.248151,2.13399 2.337477,2.91659 0.790719,0.56808 1.527304,1.32722 1.636859,1.68699 1.404481,4.61225 1.384167,4.42893 1.578851,14.24729 0.182022,9.17982 0.210515,9.53514 0.843875,10.52374 1.698238,2.65074 1.703845,2.7296 0.386554,5.43788 -0.653515,1.3436 -1.188209,2.63202 -1.188209,2.86317 0,0.77028 -1.089768,2.94535 -1.791806,3.57626 -0.381129,0.34252 -1.198064,0.80074 -1.815404,1.01827 -0.617342,0.21753 -1.23532,0.60642 -1.373286,0.86421 -0.137966,0.25779 -0.527117,1.82439 -0.864779,3.48133 -0.76607,3.75918 -1.089152,4.38257 -2.860384,5.51917 -0.782215,0.50194 -2.326729,1.91927 -3.432253,3.14961 -1.767883,1.9675 -2.055128,2.45207 -2.384287,4.02223 -0.473791,2.26011 -0.490415,4.63375 -0.03564,5.08853 0.585,0.585 1.914177,0.41665 2.42338,-0.30694 z"
       id="path5159"
       inkscape:connector-curvature="0"
       inkscape:export-xdpi="96"
       inkscape:export-ydpi="96" />
  </g>
</svg>
